<svg enable-background="new 0 0 128 128" viewBox="0 0 128 128" xmlns="http://www.w3.org/2000/svg" xmlns:xlink="http://www.w3.org/1999/xlink"><linearGradient id="a"><stop offset="0" stop-color="#ccced4"/><stop offset="1" stop-color="#918f99"/></linearGradient><radialGradient id="b" cx="-1233.566" cy="297.6441" gradientTransform="matrix(-.7071 -.7071 -.7071 .7071 -643.6985 -965.1566)" gradientUnits="userSpaceOnUse" r="11.86" xlink:href="#a"/><radialGradient id="c" cx="-1228.0833" cy="266.5379" gradientTransform="matrix(-.7071 -.7071 -.7071 .7071 -643.6985 -965.1566)" gradientUnits="userSpaceOnUse" r="17.6121" xlink:href="#a"/><linearGradient id="d"><stop offset="0" stop-color="#e5eced"/><stop offset="1" stop-color="#bfd8d5"/></linearGradient><linearGradient id="e" gradientTransform="matrix(-.7071 -.7071 -.7071 .7071 -643.6985 -965.1566)" gradientUnits="userSpaceOnUse" x1="-1236.1443" x2="-1236.1443" xlink:href="#d" y1="152.8251" y2="267.2321"/><linearGradient id="f" gradientUnits="userSpaceOnUse" x1="34.5669" x2="40.1919" y1="83.2209" y2="90.2209"><stop offset="0" stop-color="#30753f"/><stop offset=".4076" stop-color="#30773e"/><stop offset=".5929" stop-color="#327e3b"/><stop offset=".7332" stop-color="#348b36"/><stop offset=".8509" stop-color="#379d2e"/><stop offset=".9533" stop-color="#3cb525"/><stop offset="1" stop-color="#3ec21f"/></linearGradient><linearGradient id="g"><stop offset="0" stop-color="#88898d"/><stop offset="1" stop-color="#504f54"/></linearGradient><radialGradient id="h" cx="-574.5362" cy="956.6741" gradientTransform="matrix(.7071 -.7071 .7071 .7071 -159.8865 -965.1566)" gradientUnits="userSpaceOnUse" r="11.86" xlink:href="#g"/><linearGradient id="i" gradientTransform="matrix(.7071 -.7071 .7071 .7071 -159.8865 -965.1566)" gradientUnits="userSpaceOnUse" x1="-575.6896" x2="-566.4016" xlink:href="#g" y1="942.0472" y2="942.0472"/><linearGradient id="j" gradientTransform="matrix(.7071 -.7071 .7071 .7071 -159.8865 -965.1566)" gradientUnits="userSpaceOnUse" x1="-569.0639" x2="-569.0639" xlink:href="#g" y1="917.3621" y2="930.0161"/><linearGradient id="k" gradientTransform="matrix(.7071 -.7071 .7071 .7071 -159.8865 -965.1566)" gradientUnits="userSpaceOnUse" x1="-577.0897" x2="-577.0897" xlink:href="#d" y1="811.8551" y2="926.2621"/><linearGradient id="l" gradientUnits="userSpaceOnUse" x1="85.5413" x2="93.2513" y1="92.7463" y2="85.0363"><stop offset="0" stop-color="#db0000"/><stop offset=".3773" stop-color="#d90101"/><stop offset=".5488" stop-color="#d20503"/><stop offset=".6787" stop-color="#c50b07"/><stop offset=".7876" stop-color="#b3150c"/><stop offset=".8834" stop-color="#9b2113"/><stop offset=".9687" stop-color="#7f301b"/><stop offset="1" stop-color="#72361f"/></linearGradient><path d="m5.7 118.9 3.4 3.4c2.3 2.3 6.2 2.3 8.5 0s2.3-6.2 0-8.5l-3.4-3.4c-2.3-2.3-6.2-2.3-8.5 0-2.4 2.3-2.4 6.1 0 8.5z" fill="url(#b)"/><path d="m10.56 96.72h27.9v13.2h-27.9z" fill="#a85b24" transform="matrix(.7071 -.7071 .7071 .7071 -65.8773 47.59)"/><path d="m88.8 23.8-1.2-5 14.1-15.4 21.7.8.2-.2v.2l-84.6 84.7-8-8 53.4-58.5c-.1 0 4.4 1.4 4.4 1.4z" fill="#90b4bb"/><path d="m14.1 80.3c5.9-5.6 13.8-7.7 13.8-7.7 2.8 5.9 10.7 13.1 12.4 14.6s.1.1.2.2.2.2.2.2c1.5 1.7 8.7 9.6 14.6 12.4 0 0-2 8-7.7 13.8 0 0-4.5-10-14-19.5s-19.5-14-19.5-14z" fill="url(#c)"/><path d="m123.9 4.3-.2.2.8 21.7-47.3 43.1-4.2-2.6 1.4 5.2-27.4 25-8-8 84.7-84.7z" fill="url(#e)"/><path d="m42.5 85.2.2.2c.8.8 2.1.8 2.9 0l66.1-66.1c.8-.8.8-2.1 0-2.9l-.2-.1c-.8-.8-2.1-.8-2.9 0l-66.1 66c-.8.8-.8 2.1 0 2.9z" fill="#7b9aa1"/><path d="m33.3 96.2h11.6c.8 0 1.5-.7 1.5-1.5v-11.8c0-.8-.7-1.5-1.5-1.5h-11.6c-.8 0-1.5.7-1.5 1.5v11.8c0 .9.7 1.5 1.5 1.5z" fill="#ffeb3b"/><path d="m35.9 93h6.5c.5 0 .8-.4.8-.8v-6.6c0-.5-.4-.8-.8-.8h-6.5c-.5 0-.8.4-.8.8v6.6c-.1.4.3.8.8.8z" fill="url(#f)"/><circle cx="48" cy="104.6" fill="#777982" r="1.8"/><circle cx="23.4" cy="80" fill="#777982" r="1.8"/><g fill="none"><path d="m34.1 103.2-9.4-9.4" stroke="#754c24" stroke-miterlimit="10" stroke-width="2.7111"/><path d="m29.2 108.1-9.4-9.4" stroke="#754c24" stroke-miterlimit="10" stroke-width="2.7111"/><path d="m24.3 113-9.4-9.4" stroke="#754c24" stroke-miterlimit="10" stroke-width="2.7111"/></g><path d="m102.3 5.6 19.2.7.7 19.2-45.4 41.5-2.9-1.8c-.3-.2-.7-.3-1.1-.3s-.8.1-1.2.4c-.7.5-.9 1.3-.8 2.1l1.1 4-24.8 22.7c-.4.4-.7.9-.7 1.5s.3 1.1.7 1.5c2 1.7 3.9 3.1 5.5 4.1-.7 2-2.2 5.8-4.8 9.3-1.5-2.8-4.3-7.4-8.4-12.3-.4-.4-.9-.7-1.5-.7h-.1c-.5 0-1 .2-1.4.6l-18.1 18.1s-.1 0-.1.1c-.8.3-1.2 1.1-1.2 1.9 0 1.2-.4 2.2-1.1 3-.8.8-1.8 1.2-2.8 1.2s-2.1-.4-2.8-1.2l-3.4-3.4c-1.6-1.6-1.6-4.1 0-5.7.7-.7 1.7-1.2 2.8-1.2h.2.1c.8 0 1.5-.5 1.8-1.2 0 0 0-.1.1-.1l18.1-18.1c.4-.4.6-.9.6-1.5s-.3-1.1-.7-1.4c-5-4.1-9.6-6.9-12.3-8.4 3.5-2.6 7.3-4.2 9.3-4.8 1 1.7 2.4 3.5 4.1 5.6.4.4.9.7 1.5.7.6 0 1.1-.2 1.5-.7l51-55.9 3.3 1c.2.1.4.1.6.1.5 0 1-.2 1.4-.5.5-.5.7-1.2.6-1.9l-.9-3.9zm-.8-2-14.1 15.4 1.2 5-4.5-1.3-51.8 56.8c-1.8-2.2-3.6-4.5-4.6-6.7 0 0-8 2-13.9 7.7 0 0 6.9 3.1 14.6 9.6l-18.6 18.6.1.1h-.2c-1.5 0-3.1.6-4.2 1.7-2.3 2.3-2.3 6.2 0 8.5l3.4 3.4c1.2 1.2 2.7 1.8 4.2 1.8s3.1-.6 4.2-1.8c1.2-1.2 1.8-2.9 1.7-4.5l.1.1 18.7-18.7c6.4 7.8 9.5 14.6 9.5 14.6 5.6-5.9 7.7-13.8 7.7-13.8-2.2-1-4.5-2.8-6.7-4.6l25.8-23.5-1.3-5 4.2 2.6 47.3-43.1-.8-21.7.2-.2h-.2v-.2l-.2.2c-.1-.1-21.8-1-21.8-1z" fill="#424242" opacity=".2"/><path d="m122.8 118.9-3.4 3.4c-2.3 2.3-6.2 2.3-8.5 0s-2.3-6.2 0-8.5l3.4-3.4c2.3-2.3 6.2-2.3 8.5 0s2.3 6.1 0 8.5z" fill="url(#h)"/><path d="m118.4 108.5-9.4 9.4-19.7-19.7 9.4-9.4z" fill="url(#i)"/><path d="m39.6 23.8 1.2-5-14-15.4-21.8.8-.2-.2v.2l84.7 84.7 8-8-53.4-58.5z" fill="#90b4bb"/><path d="m114.3 80.3c-5.9-5.6-13.8-7.7-13.8-7.7-2.8 5.9-10.7 13.1-12.4 14.6s-.1.1-.2.2-.2.2-.2.2c-1.5 1.7-8.7 9.6-14.6 12.4 0 0 2 8 7.7 13.8 0 0 4.5-10 14-19.5s19.5-14 19.5-14z" fill="url(#j)"/><path d="m4.6 4.3.2.2-.9 21.7 47.3 43.1 4.2-2.6-1.4 5.2 27.4 25 8-8-84.6-84.7z" fill="url(#k)"/><path d="m85.9 85.2-.2.2c-.8.8-2.1.8-2.9 0l-66.1-66.1c-.8-.8-.8-2.1 0-2.9l.1-.1c.8-.8 2.1-.8 2.9 0l66.1 66.1c.9.7.9 2 .1 2.8z" fill="#7b9aa1"/><path d="m95.1 96.2h-11.6c-.8 0-1.5-.7-1.5-1.5v-11.8c0-.8.7-1.5 1.5-1.5h11.6c.8 0 1.5.7 1.5 1.5v11.8c0 .9-.6 1.5-1.5 1.5z" fill="#ffeb3b"/><path d="m92.6 93h-6.4c-.5 0-.8-.4-.8-.8v-6.6c0-.5.4-.8.8-.8h6.5c.5 0 .8.4.8.8v6.6c-.1.4-.5.8-.9.8z" fill="url(#l)"/><circle cx="80.4" cy="104.6" fill="#393a3e" r="1.8"/><circle cx="105.1" cy="80" fill="#393a3e" r="1.8"/><path d="m103.7 93.8-9.4 9.4" fill="none" stroke="#4d4d4d" stroke-miterlimit="10" stroke-width="2.7111"/><path d="m108.6 98.7-9.4 9.4" fill="none" stroke="#4d4d4d" stroke-miterlimit="10" stroke-width="2.7111"/><path d="m113.5 103.6-9.4 9.4" fill="none" stroke="#4d4d4d" stroke-miterlimit="10" stroke-width="2.7111"/><path d="m25.6 5.6 12.7 13.9-.9 3.9c-.2.7 0 1.4.6 1.9.4.4.9.5 1.4.5.2 0 .4 0 .6-.1l3.3-1 51 55.9c.4.4.9.7 1.5.7.6 0 1.1-.3 1.5-.7 1.7-2 3.1-3.9 4.1-5.6 2 .7 5.8 2.2 9.3 4.9-2.8 1.5-7.4 4.3-12.3 8.4-.4.4-.7.9-.7 1.4 0 .6.2 1.1.6 1.5l18.1 18.1s0 .1.1.1c.3.7 1 1.2 1.8 1.2h.1.2c1.1 0 2.1.4 2.8 1.2 1.6 1.6 1.6 4.1 0 5.7l-3.4 3.4c-.8.8-1.8 1.2-2.8 1.2s-2.1-.4-2.8-1.2c-.8-.8-1.2-1.8-1.1-3 0-.8-.4-1.6-1.2-1.9 0 0-.1 0-.1-.1l-18.4-17.9c-.4-.4-.9-.6-1.4-.6h-.1c-.6 0-1.1.3-1.4.7-4.1 5-6.9 9.6-8.4 12.3-2.6-3.5-4.2-7.3-4.8-9.3 1.7-1 3.5-2.3 5.6-4.1.4-.4.7-.9.7-1.5s-.2-1.1-.7-1.5l-25-22.5 1-4c.2-.8-.1-1.6-.8-2.1-.3-.3-.8-.4-1.2-.4s-.7.1-1.1.3l-2.9 1.8-45.4-41.5.8-19.2zm.9-2-21.7.9-.2-.2v.2h-.2l.2.2-.9 21.7 47.3 43.1 4.2-2.6-1.4 5.2 25.8 23.5c-2.2 1.8-4.5 3.6-6.7 4.6 0 0 2 8 7.7 13.8 0 0 3.1-6.9 9.6-14.6l18.7 18.7.1-.1c-.1 1.6.5 3.3 1.7 4.5s2.7 1.8 4.2 1.8 3.1-.6 4.2-1.8l3.4-3.4c2.3-2.3 2.3-6.2 0-8.5-1.2-1.2-2.7-1.7-4.2-1.7h-.3l.1-.1-18.6-18.7c7.8-6.4 14.6-9.6 14.6-9.6-5.9-5.6-13.8-7.7-13.8-7.7-1 2.2-2.8 4.5-4.6 6.7l-51.8-56.9-4.5 1.4 1.2-5c-.1 0-14.1-15.4-14.1-15.4z" fill="#424242" opacity=".2"/><circle cx="90.8" cy="87" fill="#fff" r=".9"/><circle cx="37.3" cy="86.8" fill="#fff" r=".9"/></svg>